PathFileType	4	(X/Y/Z)	/home/alexbeat/data/kuopio-gait-dataset/01/mocap/calib_static_markers.trc
DataRate	CameraRate	NumFrames	NumMarkers	Units	OrigDataRate	OrigDataStartFrame	OrigNumFrames
100.000000	100.000000	4	70	mm	100.000000	184	211
Frame#	Time	Pelvis1			Pelvis2			Pelvis3			Pelvis4			Torso1			Torso2			Torso3			Torso4			RFemur1			RFemur2			RFemur3			RFemur4			LFemur1			LFemur2			LFemur3			LFemur4			RTibia1			RTibia2			RTibia3			RTibia4			LTibia1			LTibia2			LTibia3			LTibia4			LFoot1			LFoot2			LFoot3			RFoot1			RFoot2			RFoot3			*30			*31			*32			*33			*34			*35			*36			*37			*38			Pelvis_RFemur_score			Pelvis_LFemur_score			RFemur_RTibia_score			RFemur_RTibia_sara			LFemur_LTibia_score			LFemur_LTibia_sara			RKnee			LKnee			RTibia_RFoot_score			LTibia_LFoot_score			USERMO0			USERMO1			USERMO2			USERMO3			USERMO4			USERMO5			USERMO6			USERMO7			USERMO8			USERMO9			USERMO10			USERMO11			USERMO12			USERMO13			USERMO14			USERMO15			USERMO16			USERMO17			USERMO18			USERMO19			USERMO20			
		X1	Y1	Z1	X2	Y2	Z2	X3	Y3	Z3	X4	Y4	Z4	X5	Y5	Z5	X6	Y6	Z6	X7	Y7	Z7	X8	Y8	Z8	X9	Y9	Z9	X10	Y10	Z10	X11	Y11	Z11	X12	Y12	Z12	X13	Y13	Z13	X14	Y14	Z14	X15	Y15	Z15	X16	Y16	Z16	X17	Y17	Z17	X18	Y18	Z18	X19	Y19	Z19	X20	Y20	Z20	X21	Y21	Z21	X22	Y22	Z22	X23	Y23	Z23	X24	Y24	Z24	X25	Y25	Z25	X26	Y26	Z26	X27	Y27	Z27	X28	Y28	Z28	X29	Y29	Z29	X30	Y30	Z30	X31	Y31	Z31	X32	Y32	Z32	X33	Y33	Z33	X34	Y34	Z34	X35	Y35	Z35	X36	Y36	Z36	X37	Y37	Z37	X38	Y38	Z38	X39	Y39	Z39	X40	Y40	Z40	X41	Y41	Z41	X42	Y42	Z42	X43	Y43	Z43	X44	Y44	Z44	X45	Y45	Z45	X46	Y46	Z46	X47	Y47	Z47	X48	Y48	Z48	X49	Y49	Z49	X50	Y50	Z50	X51	Y51	Z51	X52	Y52	Z52	X53	Y53	Z53	X54	Y54	Z54	X55	Y55	Z55	X56	Y56	Z56	X57	Y57	Z57	X58	Y58	Z58	X59	Y59	Z59	X60	Y60	Z60	X61	Y61	Z61	X62	Y62	Z62	X63	Y63	Z63	X64	Y64	Z64	X65	Y65	Z65	X66	Y66	Z66	X67	Y67	Z67	X68	Y68	Z68	X69	Y69	Z69	X70	Y70	Z70	

185	1.84	306.6146545410156	1028.010498046875	346.4519958496094	225.870849609375	1030.776977539062	349.0587768554689	227.8046417236328	916.8561401367188	316.8984069824219	297.5229187011719	917.3587036132812	315.7855834960939	262.6975402832031	1423.747802734375	507.0188903808595	91.83767700195312	1441.687255859375	451.1189270019532	436.3839416503906	1465.849487304688	445.8501281738282	254.8062591552734	1491.561889648438	373.0521545410157	91.0955810546875	647.4580688476562	398.8939208984376	101.290901184082	545.2734375	394.6828613281251	89.74341583251953	592.3507080078125	423.2133789062501	84.83647918701172	591.4755249023438	460.4419860839844	434.3409729003906	668.768310546875	422.5726318359376	433.5287475585938	632.0419311523438	484.0889892578126	423.4309387207031	563.0433959960938	423.3552856445312	434.5331115722656	634.0855102539062	442.0320129394532	92.97532653808594	363.6476135253906	377.6800537109375	97.02984619140625	419.1826171875	396.9089050292969	92.04744720458984	317.5822448730469	391.9808349609375	109.3827362060547	366.6176147460938	339.2223815917969	426.3263549804688	372.5394592285156	363.9067687988281	431.9989624023438	350.3889770507812	405.5209655761719	423.9458618164062	285.19140625	413.1307373046875	424.6715698242188	394.5914306640625	430.6035461425781	335.2291259765625	28.20101737976072	320.4114379882812	377.7855224609375	23.28188896179195	555.3360595703125	421.9345703125	23.19157981872556	505.9958190917969	179.6985931396484	26.58819580078123	331.3230285644531	118.1759719848633	22.24580001831051	562.0202026367188	76.24493408203125	20.99492263793942	506.0006713867188	1498.165283203125	615.0828857421876	-1841.671630859375	1584.311157226562	704.5135498046876	-1909.3369140625	313.8316345214844	1629.130126953125	580.6613159179689	1628.119995117188	658.2910156250001	-1821.19677734375	1627.411499023438	662.8557128906251	-1802.648193359375	nan	nan	nan	nan	nan	nan	nan	nan	nan	nan	nan	nan	139.8179931640625	904.1983642578125	454.7193298339844	375.3323059082031	892.2609252929688	458.9065551757812	145.1430816650391	461.2405090332031	417.7235412597656	243.9018096923828	466.9707946777344	432.3481140136719	364.3148193359375	458.3514099121094	433.600341796875	264.4332885742188	461.2120056152344	437.5373229980469	145.1430053710938	461.2409973144531	417.7239990234375	364.3150024414062	458.3510131835938	433.6000061035156	222.9220123291016	8.943592071533182	356.578125	373.1003112792969	18.66787910461424	337.5191650390625	-0.8890241980552673	-0.7360057234764098	-1.482894062995911	0.4305263757705688	0.6213036775588989	0.4433670043945312	0.1000000014901161	0.1000000014901161	-0.1000000014901161	-0.0003866972983814776	-1.38567841053009	-0.02950707636773594	0.3783164322376251	0.02489149570465085	0.4605811238288879	0.1000000014901161	0.1000000014901161	-0.1000000014901161	-1.073495388031006	-0.632684826850891	-1.399143934249878	0.4274578392505646	0.3360356986522675	0.3941875100135803	0.1000000014901161	0.1000000014901161	-0.1000000014901161	-0.07443605363368988	-1.899521112442017	-2.510006666183472	0.2533874213695526	0.9919638633728027	0.337474286556244	0.1000000014901161	0.1000000014901161	-0.1000000014901161	2.464943170547485	-2.241953134536743	0.203916847705841	0.09410630166530609	0.5950189232826233	0.4056522548198701	0.1000000014901161	0.1000000014901161	-0.1000000014901161	-1.881717443466187	-0.02823523245751843	-2.46908164024353	0.124706506729126	0.02327630668878552	0.4664479792118073	0.1000000014901161	0.1000000014901161	-0.1000000014901161	2.465381383895874	2.32987117767334	0.3347758650779726	0.0940440371632576	0.3667627274990082	0.3888444304466248	0.1000000014901161	0.1000000014901161	-0.1000000014901161	
186	1.85	306.6161499023438	1027.99951171875	346.4756164550782	225.884033203125	1030.783325195312	349.0698547363282	227.799072265625	916.8494873046875	316.9252014160157	297.5217895507812	917.3472290039062	315.8044128417969	262.6927795410156	1423.752563476562	507.0749511718751	91.84928131103516	1441.677734375	451.150604248047	436.3892822265625	1465.851318359375	445.9158630371095	254.8107147216797	1491.554809570312	373.0917968750001	91.09832763671875	647.447021484375	398.8876953125001	101.302116394043	545.2625732421875	394.6743774414062	89.73558044433594	592.3284912109375	423.2086486816407	84.82805633544922	591.483154296875	460.4548645019532	434.3383178710938	668.7546997070312	422.5803527832032	433.5072631835938	632.024658203125	484.1222229003907	423.4002990722656	563.0358276367188	423.3698730468751	434.5179138183594	634.0763549804688	442.0446472167969	92.97720336914062	363.6467590332031	377.6784057617188	97.04918670654297	419.1563110351562	396.9105834960938	92.09397888183594	317.5506896972656	391.9876708984375	109.3882064819336	366.6172180175781	339.2235412597656	426.3277893066406	372.5353088378906	363.91455078125	431.9935302734375	350.3667602539062	405.5342102050781	423.9557495117188	285.1870727539062	413.1417236328125	424.6943969726562	394.5755004882812	430.6410827636719	335.2525329589844	28.20332145690916	320.3956298828125	377.7734985351562	23.26938247680661	555.3361206054688	421.9368286132812	23.1814098358154	505.9765930175781	179.7066040039062	26.57519340515135	331.3154602050781	118.1681747436523	22.24148178100582	562.0145874023438	76.26979064941406	20.98651885986325	505.9813842773438	1498.2470703125	615.1541137695314	-1841.708984375	1584.31982421875	704.5288085937501	-1909.34326171875	314.0964660644531	1629.08740234375	580.5599365234376	1628.126098632812	658.2234497070314	-1821.200561523438	nan	nan	nan	-3557.287841796875	994.5917358398438	673.4404296875001	-3552.6015625	971.4883422851562	669.4179077148439	nan	nan	nan	nan	nan	nan	139.8002166748047	904.205078125	454.7205200195312	375.3512573242188	892.2571411132812	458.9250488281251	145.1513519287109	461.2350158691406	417.7267456054688	243.9112396240234	466.9816589355469	432.3369445800782	364.2975158691406	458.3482971191406	433.6318664550781	264.4167785644531	461.2256469726562	437.5765380859375	145.1510009765625	461.2349853515625	417.7269897460938	364.2980041503906	458.3479919433594	433.6319885253906	222.98388671875	8.951268196105936	356.5297546386719	373.089111328125	18.6700801849365	337.5015258789062	-0.8890550136566162	-0.7360293269157409	-1.483209490776062	0.4305079877376556	0.6212919950485229	0.4433839321136476	0.1000000014901161	0.1000000014901161	-0.1000000014901161	-0.0003485462802927941	-1.385799169540405	-0.02956459671258934	0.3783209621906281	0.0248847063630819	0.4605694711208344	0.1000000014901161	0.1000000014901161	-0.1000000014901161	-1.073594212532043	-0.6323053240776061	-1.399062275886536	0.4274610877037048	0.3360254764556885	0.3942022919654846	0.1000000014901161	0.1000000014901161	-0.1000000014901161	-0.07449636608362198	-1.899673461914062	-2.51004695892334	0.253391444683075	0.991959810256958	0.3374926745891572	0.1000000014901161	0.1000000014901161	-0.1000000014901161	2.465056180953979	-2.241902112960815	0.2042180448770522	0.09410812705755234	0.595008909702301	0.4056509733200074	0.1000000014901161	0.1000000014901161	-0.1000000014901161	-1.881661415100098	-0.0283565185964106	-2.46910834312439	0.1247148662805557	0.02326773107051846	0.4664371609687805	0.1000000014901161	0.1000000014901161	-0.1000000014901161	2.465469360351562	2.330464363098145	0.3342980146408083	0.09406815469264984	0.3667455613613129	0.3888482451438904	0.1000000014901161	0.1000000014901161	-0.1000000014901161	
187	1.86	306.628662109375	1028.00732421875	346.4863281250001	225.8836975097656	1030.785034179688	349.1072387695312	227.8071441650391	916.8548583984375	316.9282531738282	297.5474853515625	917.364990234375	315.8290710449219	262.6825561523438	1423.748046875	507.094451904297	91.85211181640625	1441.681518554688	451.1911010742189	436.3858337402344	1465.844482421875	445.9837951660157	254.8139343261719	1491.553466796875	373.1264953613282	91.101318359375	647.4465942382812	398.9004516601562	101.2922515869141	545.2702026367188	394.6763916015626	89.74864959716797	592.345458984375	423.2309875488282	84.82270812988281	591.4833374023438	460.4887390136719	434.3585510253906	668.755615234375	422.6193237304689	433.5195617675781	632.0113525390625	484.1516723632812	423.4229125976562	563.01806640625	423.3892211914062	434.5505676269531	634.092529296875	442.1076660156251	92.97698211669922	363.6547546386719	377.6702880859375	97.05945587158203	419.1478576660156	396.8994445800781	92.08200073242188	317.563232421875	391.9913940429688	109.3922882080078	366.6151123046875	339.2160949707031	426.3343200683594	372.54345703125	363.9353332519531	431.9977416992188	350.3641052246094	405.5304565429688	423.9724731445312	285.1918029785156	413.1367492675781	424.6950073242188	394.5774841308594	430.6480102539062	335.2526550292969	28.19067001342771	320.4069213867188	377.7729187011719	23.27561569213863	555.3336791992188	421.9401245117188	23.1830024719238	505.9775085449219	179.7125854492188	26.57860946655271	331.3343811035156	118.1743469238281	22.24107742309566	562.0130615234375	76.25336456298828	20.9972057342529	506.0033264160156	1498.119384765625	615.1444091796876	-1841.686279296875	1584.326171875	704.5087890625001	-1909.335571289062	313.9369812011719	1629.101440429688	580.7250366210939	1628.117431640625	658.2527465820314	-1821.213623046875	1526.649169921875	600.3702392578126	-1847.125244140625	nan	nan	nan	nan	nan	nan	nan	nan	nan	nan	nan	nan	139.8326721191406	904.1946411132812	454.7477111816407	375.3704223632812	892.2569580078125	458.9647521972657	145.1531524658203	461.2328796386719	417.72265625	243.9140777587891	466.9633178710938	432.3322448730469	364.3078308105469	458.3415222167969	433.6395568847656	264.4264526367188	461.2102661132812	437.5745544433594	145.1529998779297	461.2330017089844	417.7229919433594	364.3080139160156	458.3420104980469	433.6400146484375	222.9435272216797	8.933206558227518	356.5569152832031	373.1150207519531	18.66764831542967	337.4812927246094	-0.8887864947319031	-0.7360271215438842	-1.483323454856873	0.4305299818515778	0.6212884783744812	0.4434208869934083	0.1000000014901161	0.1000000014901161	-0.1000000014901161	-0.0004238130350131541	-1.385784506797791	-0.02951744757592686	0.3783219158649445	0.02488309703767297	0.4605727195739746	0.1000000014901161	0.1000000014901161	-0.1000000014901161	-1.073404788970947	-0.6322759389877318	-1.398990511894226	0.4274702668190002	0.3360299170017242	0.3942049443721771	0.1000000014901161	0.1000000014901161	-0.1000000014901161	-0.07445212453603745	-1.899471759796143	-2.510046243667603	0.2534011006355286	0.991966187953949	0.3375141322612762	0.1000000014901161	0.1000000014901161	-0.1000000014901161	2.464913368225098	-2.242058515548706	0.2040499448776244	0.09410727024078369	0.5950157046318054	0.4056685566902162	0.1000000014901161	0.1000000014901161	-0.1000000014901161	-1.881701111793518	-0.02808494493365273	-2.469224691390991	0.1247134357690811	0.02327229827642438	0.4664502739906311	0.1000000014901161	0.1000000014901161	-0.1000000014901161	2.465614795684814	2.3300940990448	0.3343028128147127	0.0940677747130394	0.3667502403259277	0.3888422250747681	0.1000000014901161	0.1000000014901161	-0.1000000014901161	
188	1.87	306.63916015625	1028.032958984375	346.5330810546876	225.8926696777344	1030.812255859375	349.1450805664062	227.8337554931641	916.8870239257812	316.9599609375001	297.5511779785156	917.388427734375	315.8562927246094	262.6886901855469	1423.750122070312	507.1442871093751	91.87541961669922	1441.687866210938	451.2255859375001	436.3897705078125	1465.865356445312	446.0261230468751	254.8185119628906	1491.56396484375	373.1743164062501	91.097412109375	647.4536743164062	398.9327392578126	101.2867736816406	545.2848510742188	394.7046203613282	89.73495483398438	592.3834228515625	423.2681579589844	84.81443786621094	591.47314453125	460.5094604492189	434.3738098144531	668.7565307617188	422.6581115722657	433.5599670410156	632.0651245117188	484.2104187011719	423.4392700195312	563.0210571289062	423.4197998046876	434.5419616699219	634.0919799804688	442.0944824218751	92.99324035644531	363.6195373535156	377.6700744628906	97.03325653076172	419.1793518066406	396.9241333007812	92.04786682128906	317.5964660644531	392.0056457519531	109.4064331054688	366.6236877441406	339.2352600097656	426.3350830078125	372.5389099121094	363.928955078125	432.0137634277344	350.3857421875	405.5620422363281	423.9710083007812	285.1939086914062	413.1675415039062	424.6907958984375	394.5834350585938	430.6570129394531	335.2434387207031	28.2047710418701	320.4083862304688	377.7752380371094	23.26160812377926	555.3567504882812	421.9307556152344	23.17640686035153	505.9977416992188	179.7198486328125	26.57497787475584	331.3900451660156	118.1717910766602	22.23981094360348	562.0335083007812	76.24166870117188	21.00093078613278	505.986572265625	1498.225830078125	614.6722412109376	-1841.830688476562	1584.303466796875	704.5374145507814	-1909.337158203125	314.1373596191406	1629.039306640625	580.6662597656251	1628.112548828125	658.2654418945314	-1821.221435546875	nan	nan	nan	1627.256713867188	662.8517456054689	-1802.624633789062	nan	nan	nan	nan	nan	nan	nan	nan	nan	139.8307342529297	904.205322265625	454.7960205078126	375.3755493164062	892.2708740234375	458.9796752929689	145.1333923339844	461.2428588867188	417.7549438476562	243.8881988525391	466.9691772460938	432.4075317382812	364.3173828125	458.3513488769531	433.6752624511719	264.4364624023438	461.2161560058594	437.6240234375	145.1329956054688	461.2430114746094	417.7550048828125	364.3169860839844	458.3510131835938	433.6749877929688	222.9420166015625	8.928312301635721	356.6369934082031	373.1219787597656	18.6676330566406	337.5344848632812	-0.8891685009002686	-0.7359343767166137	-1.483009219169617	0.4305461645126343	0.6213027834892273	0.4434506297111512	0.1000000014901161	0.1000000014901161	-0.1000000014901161	-0.0003047626523766667	-1.385776042938232	-0.02958057075738915	0.3783164918422699	0.02488092891871926	0.4605876505374908	0.1000000014901161	0.1000000014901161	-0.1000000014901161	-1.073523044586182	-0.6325396299362182	-1.39897358417511	0.4274743497371674	0.3360339999198914	0.3942248225212097	0.1000000014901161	0.1000000014901161	-0.1000000014901161	-0.07438232004642487	-1.899354934692383	-2.510172128677368	0.253413200378418	0.991992712020874	0.3375514149665834	0.1000000014901161	0.1000000014901161	-0.1000000014901161	2.465015411376953	-2.242187976837158	0.2040350437164306	0.09410076588392258	0.595029890537262	0.4056985378265381	0.1000000014901161	0.1000000014901161	-0.1000000014901161	-1.881550788879395	-0.02796798944473252	-2.469425916671753	0.1247111111879349	0.02327190712094304	0.4664700627326965	0.1000000014901161	0.1000000014901161	-0.1000000014901161	2.465086221694946	2.329703807830811	0.335142493247986	0.09405078738927841	0.366760641336441	0.3888537883758545	0.1000000014901161	0.1000000014901161	-0.1000000014901161	
